<?xml version="1.0" encoding="UTF-8" ?>
<!DOCTYPE svg PUBLIC "-//W3C//DTD SVG 1.1//EN" "http://www.w3.org/Graphics/SVG/1.1/DTD/svg11.dtd">
<svg width="463pt" height="463pt" viewBox="0 0 463 463" version="1.1" xmlns="http://www.w3.org/2000/svg">
<g id="#ffffffff">
<path fill="#ffffff" opacity="1.00" d=" M 125.53 0.00 L 337.47 0.00 C 366.35 0.75 394.99 11.18 417.02 29.94 C 445.29 53.13 462.24 89.05 463.00 125.53 L 463.00 337.46 C 462.31 358.93 456.70 380.37 445.74 398.90 C 436.75 414.51 424.49 428.30 409.75 438.70 C 388.93 454.05 363.25 462.28 337.47 463.00 L 125.53 463.00 C 96.65 462.24 68.01 451.82 45.97 433.05 C 17.71 409.87 0.76 373.95 0.00 337.47 L 0.00 125.54 C 0.66 107.05 4.74 88.56 13.05 71.98 C 22.54 52.46 37.07 35.33 55.00 23.05 C 75.50 8.49 100.46 0.71 125.53 0.00 M 91.61 88.76 C 91.12 91.35 91.07 94.04 91.37 96.66 C 121.56 138.71 152.53 180.20 182.79 222.20 C 188.72 230.97 195.67 239.02 201.45 247.89 C 164.84 289.80 128.27 331.75 91.60 373.61 C 90.85 374.74 91.58 376.16 91.54 377.41 C 97.69 377.76 103.85 377.59 110.00 377.64 C 187.45 377.92 264.90 377.82 342.35 377.50 C 348.36 361.18 354.37 344.87 360.48 328.59 C 362.73 322.34 365.74 316.33 367.14 309.81 C 364.28 310.01 360.93 308.96 358.38 310.29 C 356.43 314.02 354.77 317.91 352.38 321.39 C 341.83 336.67 324.99 346.73 307.12 351.04 C 286.45 355.92 265.19 357.58 244.00 357.84 C 228.33 358.72 212.67 357.68 197.00 357.82 C 171.68 357.82 146.36 357.86 121.05 357.81 C 157.47 316.93 193.38 275.60 229.40 234.36 C 230.50 233.15 229.73 231.25 228.85 230.13 C 199.70 189.98 170.43 149.91 141.13 109.86 C 138.39 105.99 135.31 102.36 132.84 98.31 C 175.23 98.42 217.63 97.77 260.01 98.89 C 278.18 100.16 296.65 101.77 313.93 107.91 C 330.65 114.05 346.61 124.71 355.36 140.63 C 356.56 142.52 357.30 144.80 358.97 146.36 C 361.73 146.47 364.50 146.38 367.27 146.31 C 359.00 126.72 350.62 107.17 342.11 87.67 C 259.72 87.74 177.34 87.58 94.95 87.64 C 93.61 87.40 92.49 87.77 91.61 88.76 Z" />
</g>
<g id="#000000ff">
<path fill="#000000" opacity="1.00" d=" M 91.61 88.76 C 92.49 87.77 93.61 87.40 94.95 87.64 C 177.34 87.58 259.72 87.74 342.11 87.67 C 350.62 107.17 359.00 126.72 367.27 146.31 C 364.50 146.38 361.73 146.47 358.97 146.36 C 357.30 144.80 356.56 142.52 355.36 140.63 C 346.61 124.71 330.65 114.05 313.93 107.91 C 296.65 101.77 278.18 100.16 260.01 98.89 C 217.63 97.77 175.23 98.42 132.84 98.31 C 135.31 102.36 138.39 105.99 141.13 109.86 C 170.43 149.91 199.70 189.98 228.85 230.13 C 229.73 231.25 230.50 233.15 229.40 234.36 C 193.38 275.60 157.47 316.93 121.05 357.81 C 146.36 357.86 171.68 357.82 197.00 357.82 C 212.67 357.68 228.33 358.72 244.00 357.84 C 265.19 357.58 286.45 355.92 307.12 351.04 C 324.99 346.73 341.83 336.67 352.38 321.39 C 354.77 317.91 356.43 314.02 358.38 310.29 C 360.93 308.96 364.28 310.01 367.14 309.81 C 365.74 316.33 362.73 322.34 360.48 328.59 C 354.37 344.87 348.36 361.18 342.35 377.50 C 264.90 377.82 187.45 377.92 110.00 377.64 C 103.85 377.59 97.69 377.76 91.54 377.41 C 91.58 376.16 90.85 374.74 91.60 373.61 C 128.27 331.75 164.84 289.80 201.45 247.89 C 195.67 239.02 188.72 230.97 182.79 222.20 C 152.53 180.20 121.56 138.71 91.37 96.66 C 91.07 94.04 91.12 91.35 91.61 88.76 Z" />
</g>
</svg>
